<svg xmlns="http://www.w3.org/2000/svg" width="512" height="512"><path d="M512 512s-343.86-1.11-420.43 0S0 435.39 0 435.39V79C0 17.75 88.71 0 88.71 0h335.07C506.26 0 512 129.52 512 129.52Z" data-name="Layer 3" style="fill:#f1f2f2"/><g data-name="Layer 1"><path d="m331 379.12 59.54-6.54 6.5 59.53a12 12 0 0 0 13.22 10.6l59.53-6.52 6.52 59.53a12 12 0 0 0 23.84-2.61l-7.83-71.45a12 12 0 0 0-13.22-10.58l-59.55 6.52-6.55-59.54a12 12 0 0 0-13.2-10.59L340.3 354l-6.54-59.52a12 12 0 1 0-23.82 2.6l7.85 71.45A12 12 0 0 0 331 379.12Z" style="fill:#2e3192"/><path d="m359.08 345.9 59.44 7.42-7.46 59.42a12 12 0 0 0 10.41 13.38l59.42 7.44-7.44 59.44a12 12 0 0 0 23.79 3l8.93-71.32a12 12 0 0 0-10.41-13.36l-59.44-7.44 7.43-59.44a12 12 0 0 0-10.39-13.35L374 323.61l7.41-59.42a12 12 0 1 0-23.77-3l-8.9 71.32a12 12 0 0 0 10.39 13.37Z" style="fill:#f9ed32"/><path d="m341.42 356.83 59.89.87-.91 59.88a12 12 0 0 0 11.81 12.15l59.88.9-.89 59.87a12 12 0 0 0 24 .36l1.04-71.86a12 12 0 0 0-11.81-12.13l-59.9-.89.89-59.9a12 12 0 0 0-11.79-12.14l-59.87-.94.87-59.88a12 12 0 0 0-24-.36l-1.05 71.87a12 12 0 0 0 11.8 12.16Z" style="fill:#ec008c"/></g><g data-name="Layer 2"><path d="M46.68 9.16q12.75-5.93 22.63-7.54A119.78 119.78 0 0 1 88.71 0a116.42 116.42 0 0 1 19.22 1.62 89 89 0 0 1 21.38 6.82 85 85 0 0 1 21 13.29q9.33 8.09 16.52 22.27t9 32.87q0 7.91-7.18 7.91h-3.23q-6.47 0-7.19-6.47a80.34 80.34 0 0 0-7.54-26.58q-5.75-11.49-13.29-17.6a68.13 68.13 0 0 0-17.25-10.06Q105.77 18 93.38 18a120.06 120.06 0 0 0-20.47 1.4 75.67 75.67 0 0 0-18.14 6.1 59.35 59.35 0 0 0-17.61 12.4q-7.53 7.73-12.75 21.73T19.2 92v70.41q0 18.31 5.39 32.33t12.93 21.73a58.54 58.54 0 0 0 17.78 12.35 78.15 78.15 0 0 0 18.15 6.11 87.86 87.86 0 0 0 15.8 1.44 100.29 100.29 0 0 0 15.81-1.26 73.22 73.22 0 0 0 18-5.75 59.89 59.89 0 0 0 17.6-11.85q7.55-7.37 12.75-20.66t5.17-30.85v-20.87H99.31q-7.19 0-7.19-7.19v-3.23a7.2 7.2 0 0 1 2-5 6.71 6.71 0 0 1 5.21-2.16h62.5q14.37 0 14.37 15.45v23.35q0 21.92-6.64 38.62t-16 25.68A72.41 72.41 0 0 1 131.64 245a104.43 104.43 0 0 1-42.39 9q-23 0-39.33-7.9t-25.87-17.28q-9.53-9.33-16-26.4t-6.47-39v-72.9q0-22.62 6.65-39.87t16.16-26.4A81 81 0 0 1 46.68 9.16ZM184.24 0h3.26a6.8 6.8 0 0 1 5.26 2.18 7.28 7.28 0 0 1 2 5.08v239.45a7.28 7.28 0 0 1-2 5.08 6.8 6.8 0 0 1-5.26 2.21h-3.26a7.45 7.45 0 0 1-7.26-7.26V7.26a7 7 0 0 1 2.18-5.08A7 7 0 0 1 184.24 0Zm25 111.38h93.61a7.43 7.43 0 0 1 7.25 7.26v3.63a7.41 7.41 0 0 1-7.25 7.25h-93.58a7.43 7.43 0 0 1-7.26-7.25v-3.63a7.45 7.45 0 0 1 7.26-7.26ZM323.92 0h3.27a6.83 6.83 0 0 1 5.26 2.18 7.31 7.31 0 0 1 2 5.08v239.45a7.31 7.31 0 0 1-2 5.08 6.83 6.83 0 0 1-5.26 2.18h-3.27a7.45 7.45 0 0 1-7.26-7.26V7.26a7 7 0 0 1 2.18-5.08A7 7 0 0 1 323.92 0Zm56.93 8.51q13-5.61 22.82-7.06A138 138 0 0 1 423.78 0a128.44 128.44 0 0 1 20.47 1.63q10.14 1.64 23 7.43a76.25 76.25 0 0 1 22.28 15q9.42 9.24 15.94 26.09T512 89.12v73.55q0 22.83-6.7 40.22T489 229.7a77.48 77.48 0 0 1-22.28 15.21A103.71 103.71 0 0 1 424 254q-23.55 0-40-8t-26-17.39q-9.42-9.42-15.94-26.63t-6.52-39.31V89.12q0-22.82 6.7-39.85t16.13-26.08a74.5 74.5 0 0 1 22.48-14.68Zm77 16.31A77.59 77.59 0 0 0 439.72 19a99.68 99.68 0 0 0-15.94-1.27A103.08 103.08 0 0 0 407.66 19a76.81 76.81 0 0 0-18.3 5.8 59.78 59.78 0 0 0-17.93 12q-7.6 7.44-12.86 21.38t-5.26 32.42v71q0 18.48 5.26 32.61t13 21.92a62 62 0 0 0 17.93 12.5 75.57 75.57 0 0 0 18.3 6.16 90.33 90.33 0 0 0 32.24 0 75.43 75.43 0 0 0 18.3-6.16 59.62 59.62 0 0 0 17.75-12.5q7.62-7.79 12.86-21.92t5.26-32.61v-71q0-18.46-5.44-32.42t-13-21.38a59.78 59.78 0 0 0-17.93-11.98Z" style="fill:#231f20"/><path d="M14.3 305.52q0-24.67 20.27-43t55.28-18.36q35 0 58.91 18.55T174.19 318a8 8 0 0 1-2.29 5.55 7.08 7.08 0 0 1-5.36 2.49h-3.82a7.19 7.19 0 0 1-5-2.11 8.14 8.14 0 0 1-2.68-5.16q-1.15-29.07-19.51-42.27t-44-13.2q-27.54 0-42.84 12.63t-15.3 31.17q0 18.56 10.71 29.65 14.91 14.91 55.46 30.6 48.19 19.13 64.27 38.25 12.23 14.54 12.24 41.7t-22 46.47Q132.1 513 91.57 513q-30.22 0-57-16.45a67.5 67.5 0 0 1-23.14-24.67q-9-15.87-9.75-36.53c0-5.36 2.54-8 7.65-8h3.44q6.89 0 7.65 7.27.76 16.85 8.42 29.26T48 482.44a101.89 101.89 0 0 0 48.73 11.86q26.59 0 43.61-14t17-35q0-21.42-13.77-32.89a126.11 126.11 0 0 0-24.1-15.69q-16.83-8-52.78-22.57-27.54-12.23-40-28.11T14.3 305.52Zm153.83-69.47h175.74a7.45 7.45 0 0 1 5.74 2.38 8 8 0 0 1 2.17 5.54v4.35q0 7.13-7.91 7.13H168.13q-7.92 0-7.91-7.13V244a8.12 8.12 0 0 1 7.91-7.92Zm85.49 30.08h4q7.92 0 7.92 7.53V505.2a8 8 0 0 1-2.18 5.54 7.42 7.42 0 0 1-5.74 2.37h-4a7.39 7.39 0 0 1-5.73-2.37 7.92 7.92 0 0 1-2.18-5.54V273.66q0-7.53 7.91-7.53Z" style="fill:#231f20"/></g></svg>